<svg id="Layer_1" data-name="Layer 1" xmlns="http://www.w3.org/2000/svg" viewBox="0 0 651.78 125.5"><defs><style>.cls-1{fill:#3a3a3c;}.cls-2{fill:#ea4335;}</style></defs><path class="cls-1" d="M198.3,423.21A12.29,12.29,0,0,1,186.08,411V339.54h15.73v61.91a6,6,0,0,0,6,6h9.7V339.54h15.73v61.91a6,6,0,0,0,6,6h9.54V339.54h15.73v83.67Z" transform="translate(-186.08 -297.7)"/><path class="cls-1" d="M288.49,423.21A12.27,12.27,0,0,1,276.28,411V351.58a11.47,11.47,0,0,1,3.59-8.53,11.91,11.91,0,0,1,8.62-3.51h22.76a11.81,11.81,0,0,1,8.7,3.51,11.62,11.62,0,0,1,3.51,8.53V377a11.91,11.91,0,0,1-3.51,8.62,11.66,11.66,0,0,1-8.7,3.6H292v12.21a5.82,5.82,0,0,0,1.75,4.27,6,6,0,0,0,4.44,1.76H320l3.51,15.73Zm3.52-49.7h9.7a6,6,0,0,0,6-6v-6.19a6,6,0,0,0-6-6H298.2a6,6,0,0,0-4.44,1.75,5.82,5.82,0,0,0-1.75,4.27Z" transform="translate(-186.08 -297.7)"/><path class="cls-1" d="M335.18,423.21v-122l15.73-3.52v41.84h19.24a11.91,11.91,0,0,1,8.62,3.51,11.68,11.68,0,0,1,3.6,8.7V411a12.29,12.29,0,0,1-12.22,12.22Zm15.73-15.73h9.54a6.11,6.11,0,0,0,4.35-1.76,5.71,5.71,0,0,0,1.84-4.27V361.29A5.71,5.71,0,0,0,364.8,357a6.1,6.1,0,0,0-4.35-1.75h-9.54Z" transform="translate(-186.08 -297.7)"/><path class="cls-2" d="M404.62,423.21a11.69,11.69,0,0,1-8.7-3.6,11.91,11.91,0,0,1-3.51-8.62V351.75a11.94,11.94,0,0,1,3.51-8.62,11.72,11.72,0,0,1,8.7-3.59h22.76a12.27,12.27,0,0,1,12.22,12.21V370H423.87v-8.7A5.71,5.71,0,0,0,422,357a6.1,6.1,0,0,0-4.35-1.75h-3.52a6,6,0,0,0-6,6v40.16a6,6,0,0,0,6,6h3.52a6.11,6.11,0,0,0,4.35-1.76,5.71,5.71,0,0,0,1.84-4.27v-8.7H439.6V411a12.29,12.29,0,0,1-12.22,12.22Z" transform="translate(-186.08 -297.7)"/><path class="cls-2" d="M449.64,423.21V339.54h35a12.27,12.27,0,0,1,12.22,12.21V370l-15.73-3.51v-5a6.09,6.09,0,0,0-1.76-4.35,5.66,5.66,0,0,0-4.27-1.84h-9.7v67.94Z" transform="translate(-186.08 -297.7)"/><path class="cls-2" d="M515.74,423.21A12.29,12.29,0,0,1,503.52,411V351.58a11.48,11.48,0,0,1,3.6-8.53,11.91,11.91,0,0,1,8.62-3.51H538.5a11.85,11.85,0,0,1,8.7,3.51,11.62,11.62,0,0,1,3.51,8.53V377a11.91,11.91,0,0,1-3.51,8.62,11.69,11.69,0,0,1-8.7,3.6H519.25v12.21a5.83,5.83,0,0,0,1.76,4.27,6,6,0,0,0,4.43,1.76H547.2l3.51,15.73Zm3.51-49.7H529a6,6,0,0,0,6-6v-6.19a6,6,0,0,0-6-6h-3.52A6,6,0,0,0,521,357a5.83,5.83,0,0,0-1.76,4.27Z" transform="translate(-186.08 -297.7)"/><path class="cls-2" d="M571.29,423.21a11.89,11.89,0,0,1-8.61-3.52,11.66,11.66,0,0,1-3.6-8.7V385.72a12.27,12.27,0,0,1,12.21-12.21h13.06a6,6,0,0,0,4.43-1.76,5.81,5.81,0,0,0,1.76-4.27v-6.19a5.83,5.83,0,0,0-1.76-4.27,6,6,0,0,0-4.43-1.75H566.27l3.52-15.73h24.26a12.27,12.27,0,0,1,12.22,12.21v71.46Zm9.54-15.73h9.71V389.24h-9.71a6,6,0,0,0-6,6v6.19a6,6,0,0,0,6,6Z" transform="translate(-186.08 -297.7)"/><path class="cls-2" d="M616.31,423.21V301.38L632,297.87v41.67H652l-3.68,15.73H632v67.94Z" transform="translate(-186.08 -297.7)"/><path class="cls-2" d="M657,317.11V301.38l15.73-3.68v15.73Zm.34,106.1v-80L673,339.54v83.67Z" transform="translate(-186.08 -297.7)"/><path class="cls-2" d="M697.13,423.21,681.4,339.54h15.73L705,381.37l7.86-41.83h15.73l-15.73,83.67Z" transform="translate(-186.08 -297.7)"/><path class="cls-2" d="M745.83,423.21A12.29,12.29,0,0,1,733.61,411V351.58a11.48,11.48,0,0,1,3.6-8.53,11.89,11.89,0,0,1,8.62-3.51h22.75a11.81,11.81,0,0,1,8.7,3.51,11.59,11.59,0,0,1,3.52,8.53V377a11.88,11.88,0,0,1-3.52,8.62,11.66,11.66,0,0,1-8.7,3.6H749.34v12.21a5.79,5.79,0,0,0,1.76,4.27,6,6,0,0,0,4.43,1.76h21.75l3.52,15.73Zm3.51-49.7H759a6,6,0,0,0,6-6v-6.19a6,6,0,0,0-6-6h-3.51A6,6,0,0,0,751.1,357a5.79,5.79,0,0,0-1.76,4.27Z" transform="translate(-186.08 -297.7)"/><path class="cls-2" d="M802.89,423.21a11.5,11.5,0,0,1-8.54-3.6,11.91,11.91,0,0,1-3.51-8.62V397.1H806.4v4.35a5.68,5.68,0,0,0,1.84,4.27,6.11,6.11,0,0,0,4.35,1.76h3.52a6,6,0,0,0,6-6v-6.19a6,6,0,0,0-6-6H802.89a11.5,11.5,0,0,1-8.54-3.6,11.91,11.91,0,0,1-3.51-8.62V351.75a11.94,11.94,0,0,1,3.51-8.62,11.53,11.53,0,0,1,8.54-3.59h22.92a11.53,11.53,0,0,1,8.54,3.59,11.94,11.94,0,0,1,3.51,8.62v13.89H822.13v-4.35a6,6,0,0,0-6-6h-3.52a6.1,6.1,0,0,0-4.35,1.75,5.68,5.68,0,0,0-1.84,4.27v6.19a5.66,5.66,0,0,0,1.84,4.27,6.11,6.11,0,0,0,4.35,1.76h13.22a11.53,11.53,0,0,1,8.54,3.59,11.91,11.91,0,0,1,3.51,8.62v25.94a12.18,12.18,0,0,1-12.05,11.55Z" transform="translate(-186.08 -297.7)"/></svg>